<svg width="41" height="40" viewBox="0 0 41 40" fill="none" xmlns="http://www.w3.org/2000/svg">
<path d="M24.1023 40H16.4064C15.8934 40 15.4487 39.8333 15.0725 39.5C14.6962 39.1667 14.4739 38.75 14.4055 38.25L13.7898 33.6C13.3452 33.4333 12.9265 33.2333 12.5339 33C12.1398 32.7667 11.7547 32.5167 11.3785 32.25L6.91484 34.05C6.43599 34.2167 5.95713 34.2333 5.47828 34.1C4.99942 33.9667 4.62318 33.6833 4.34954 33.25L0.552902 26.8C0.27927 26.3667 0.19376 25.9 0.296372 25.4C0.398984 24.9 0.655514 24.5 1.06596 24.2L4.91391 21.35C4.87971 21.1167 4.8626 20.8913 4.8626 20.674V19.324C4.8626 19.108 4.87971 18.8833 4.91391 18.65L1.06596 15.8C0.655514 15.5 0.398984 15.1 0.296372 14.6C0.19376 14.1 0.27927 13.6333 0.552902 13.2L4.34954 6.75C4.58897 6.28333 4.95632 5.99133 5.4516 5.874C5.94824 5.758 6.43599 5.78333 6.91484 5.95L11.3785 7.75C11.7547 7.48333 12.1481 7.23333 12.5585 7C12.9689 6.76667 13.3794 6.56667 13.7898 6.4L14.4055 1.75C14.4739 1.25 14.6962 0.833333 15.0725 0.5C15.4487 0.166667 15.8934 0 16.4064 0H24.1023C24.6154 0 25.0601 0.166667 25.4363 0.5C25.8125 0.833333 26.0349 1.25 26.1033 1.75L26.7189 6.4C27.1636 6.56667 27.5829 6.76667 27.977 7C28.3696 7.23333 28.7541 7.48333 29.1303 7.75L33.5939 5.95C34.0728 5.78333 34.5517 5.76667 35.0305 5.9C35.5094 6.03333 35.8856 6.31667 36.1592 6.75L39.9559 13.2C40.2295 13.6333 40.315 14.1 40.2124 14.6C40.1098 15.1 39.8533 15.5 39.4428 15.8L35.5949 18.65C35.6291 18.8833 35.6462 19.108 35.6462 19.324V20.674C35.6462 20.8913 35.612 21.1167 35.5436 21.35L39.3915 24.2C39.802 24.5 40.0585 24.9 40.1611 25.4C40.2637 25.9 40.1782 26.3667 39.9046 26.8L36.1079 33.2C35.8343 33.6333 35.4499 33.9253 34.9546 34.076C34.4579 34.2253 33.9702 34.2167 33.4913 34.05L29.1303 32.25C28.7541 32.5167 28.3607 32.7667 27.9503 33C27.5398 33.2333 27.1294 33.4333 26.7189 33.6L26.1033 38.25C26.0349 38.75 25.8125 39.1667 25.4363 39.5C25.0601 39.8333 24.6154 40 24.1023 40ZM20.357 27C22.3408 27 24.0339 26.3167 25.4363 24.95C26.8387 23.5833 27.5398 21.9333 27.5398 20C27.5398 18.0667 26.8387 16.4167 25.4363 15.05C24.0339 13.6833 22.3408 13 20.357 13C18.339 13 16.637 13.6833 15.251 15.05C13.8665 16.4167 13.1742 18.0667 13.1742 20C13.1742 21.9333 13.8665 23.5833 15.251 24.95C16.637 26.3167 18.339 27 20.357 27Z" fill="url(#paint0_linear_51_3)"/>
<defs>
<linearGradient id="paint0_linear_51_3" x1="40" y1="6" x2="6" y2="40" gradientUnits="userSpaceOnUse">
<stop stop-color="#757575"/>
<stop offset="0.45" stop-color="#9E9E9E"/>
<stop offset="0.7" stop-color="#E8E8E8"/>
<stop offset="0.775" stop-color="#9E9E9E"/>
<stop offset="1" stop-color="#757575"/>
</linearGradient>
</defs>
</svg>
