<svg width="128" height="70" viewBox="0 0 128 70" fill="none" xmlns="http://www.w3.org/2000/svg">
<path fill-rule="evenodd" clip-rule="evenodd" d="M57.011 1.47689C55.214 3.64189 56.557 7.53789 59.926 9.93689C62.326 11.6459 63.277 11.8209 65.258 10.9179C68.835 9.28789 71.366 4.54289 70.01 2.00889C68.877 -0.109109 65.558 -0.721108 64.498 0.992892C64.084 1.66289 63.257 1.66289 62.005 0.992892C59.462 -0.368108 58.462 -0.271109 57.011 1.47689ZM35.566 10.0659C28.955 15.8709 29.944 23.0309 38.735 32.9899C40.919 35.4649 43.448 38.9299 44.353 40.6899C46.383 44.6339 46.516 48.9899 44.607 48.9899C43.106 48.9899 42 46.8979 42 44.0579C42 40.5989 36.336 34.2839 31.617 32.4819C26.136 30.3879 22.304 30.9299 12.611 35.1709C7.882 37.2389 4.825 38.0049 2.861 37.6119C0.0910001 37.0579 0 37.1689 0 41.0719C0 52.4699 5.383 61.0839 15.672 66.1499C22.06 69.2949 23.069 69.4899 32.978 69.4899C47.605 69.4899 55.276 65.9979 59.087 57.6059C63.265 48.4049 61.055 42.5869 48.892 30.7789C40.735 22.8589 39.901 21.7069 40.186 18.7549C40.464 15.8639 40.843 15.4899 43.5 15.4899C46.221 15.4899 46.528 15.8239 46.801 19.0869C47.026 21.7719 48.137 23.6739 51.18 26.5869C55.062 30.3019 55.229 30.3639 54.642 27.8679C54.28 26.3279 54.657 23.9809 55.554 22.1829C56.884 19.5159 56.9 18.6859 55.677 15.7589C51.993 6.94189 42.261 4.18789 35.566 10.0659ZM76.941 9.69289C75.174 11.1799 73.096 13.9089 72.323 15.7589C71.1 18.6859 71.116 19.5159 72.446 22.1829C73.343 23.9809 73.72 26.3279 73.358 27.8679C72.771 30.3639 72.938 30.3019 76.82 26.5869C79.863 23.6739 80.974 21.7719 81.199 19.0869C81.472 15.8239 81.779 15.4899 84.5 15.4899C87.162 15.4899 87.536 15.8609 87.817 18.7839C88.104 21.7729 87.298 22.8869 79.094 30.8449C66.93 42.6449 64.737 48.4089 68.913 57.6059C72.724 65.9979 80.395 69.4899 95.022 69.4899C104.931 69.4899 105.94 69.2949 112.328 66.1499C122.617 61.0839 128 52.4699 128 41.0719C128 37.1689 127.909 37.0579 125.139 37.6119C123.175 38.0049 120.118 37.2389 115.389 35.1709C105.696 30.9299 101.864 30.3879 96.383 32.4819C91.664 34.2839 86 40.5989 86 44.0579C86 46.8979 84.894 48.9899 83.393 48.9899C81.798 48.9899 81.547 45.3109 82.899 41.7549C83.394 40.4539 85.914 36.9369 88.499 33.9399C98.11 22.7969 99.226 16.0289 92.434 10.0659C87.703 5.91289 81.608 5.76589 76.941 9.69289Z" fill="black"/>
</svg>
